<svg xmlns="http://www.w3.org/2000/svg" width="200" height="200" viewBox="0 0 85 88" class="looka-1j8o68f">
  <defs id="SvgjsDefs10084"/>
  <g id="SvgjsG10085" featurekey="symbolContainer" transform="matrix(0.8106022889223812,0,0,0.8106022889223812,-0.045034843867023285,0)" fill="#34214f">
    <g xmlns="http://www.w3.org/2000/svg">
      <path d="M19.8 15.3h.5l-.4-.2zm.5.1zm.8-.7c0 .1 0 .1.1.1l.4-.3c-.2-.1-.3-.1-.5.2zm.4-.2zm-4.1 2.3zm-.2.6l.3-.2c.1-.1.1-.2.1-.2h-.2l-.2.4c-.1-.1-.1 0 0 0zm2.2-2.9h-.1l-.2.2h.3zm-2.1 2.4l.6-.5c.1-.1.1-.2.1-.3h-.3l-1.2 1.1-.2.4.7-.6zm-1.1.8z"/>
      <path d="M9.7 25v-.2a1.7 1.7 0 0 1 .7-1.1l.9-.6.5-.6.7-.7.4-.4.4-.3a1.9 1.9 0 0 0 .8-.9l.4-.5a5.9 5.9 0 0 0 1-1.3l.2-.3.3-.2-.2-.3.4-.5c.8-.6 1.4-1.4 2.2-2l.3-.3a1.4 1.4 0 0 1 .5-.6l.8-.4h.4a1.4 1.4 0 0 0 .7-.6V13a3.5 3.5 0 0 1 1.3-1.4l.8-.5.2-.2.4-.4 1-.5h.2l-1.1.4-1.4 1c-.6.5-1.4.6-1.8 1.4h.3c-.7.2-1.4.5-1.7 1.2s-.8.6-1.2.9a.4.4 0 0 0-.3.4c-.8-.1-1.1.5-1.5.9v.8a3.9 3.9 0 0 0-1.6 1.4c-1.6.1-1.6 2.1-3 2.5h-.1a.2.2 0 0 0 0 .2c-.3 0-.5.2-.4.5l-.2.5c-.7.4-.6 1.1-1 1.7-.8.5-1.1 1.5-1.7 2.2l.3.5.2-.2a11.6 11.6 0 0 1 .9-1.3zM53.9 3.3l.6.2h.2a2.2 2.2 0 0 0 1.4.2 4.1 4.1 0 0 1 1.9.1h1.2a1.4 1.4 0 0 1 1.2.3.1.1 0 0 1 0 .1H60a.1.1 0 0 0 0 .1h.7a1.8 1.8 0 0 1 1.3 0c.2 0 .1.1.2.2l.5.2h-.2c-.2-.4-.5-.4-.8-.4a9.7 9.7 0 0 0-4.3-.9h-.8A9.8 9.8 0 0 0 53 3h.2zm7.3 3.1zM50.3 4.7zm10.9 1.7h.2-.2zM19 14.7zm32.1-10zm17.6 2.2a.9.9 0 0 0 1 .2h.6a3.1 3.1 0 0 0-1.8-.7l-.7-.2.5.3zm-3.4-1.3c0 .1.1.2.2.3h.2l.5-.3a4.2 4.2 0 0 0-1.7-.6l.7.4zm7.4 2.7l.8.5c-.2-.3-.4-.5-.8-.5z"/>
      <path d="M99 76.1l.6-1.6.6-1.5c.2-.5.6-1.8.8-2.6a1.7 1.7 0 0 1 .3-.7h.1v-1.1c.5-.1.4-.6.5-.9l.8-4.7a12.7 12.7 0 0 0 0-6.2 1.9 1.9 0 0 0-.5-1.6v-4.3c-.3-.9.3-1.9-.4-2.7L101 45a.4.4 0 0 0 0-.2l-.2-.6a.5.5 0 0 1 0-.4h.1c.3 0 .3-.5.3-.9a3 3 0 0 0-.4-1.1l-.3-.4a1.1 1.1 0 0 1-.2-.7 6.7 6.7 0 0 0-.2-2v-.6c-.2-.7-.4-1.5-.6-2.2l-.2-.5a2.5 2.5 0 0 1-.4-1.1 2.5 2.5 0 0 0-.3-.8l-.6-1a.8.8 0 0 0-.6-.2h-.1V32h-.2v-.8H97V31a.4.4 0 0 0 0-.1v-.2c.1-.2.1-.3-.1-.5a1.8 1.8 0 0 1-.4-.6l-.2-.6a2.9 2.9 0 0 0-.7-1.2 2.2 2.2 0 0 1-.5-.7l-.7-1.6a4.3 4.3 0 0 0-.6-1l-.6-.8a2.4 2.4 0 0 1-.4-.8l-.2-.3a.6.6 0 0 1-.1-.5.5.5 0 0 0-.2-.4l-.4-.3v.2c.1.2 0 .3-.1.3h-.2l.3 1 .3.5.7.9h-.1l-.2-.2-.2-.2a1.3 1.3 0 0 0-1.2-1.1v-.7c-.3-1.2-1.6-1.3-2.2-2.1a1.5 1.5 0 0 0-1.1-.9l-.8-.9a11.3 11.3 0 0 0-3.1-3l-.8-.6-.4-.3c-.7-.7-1-1.8-2.2-1.8l-.8-.5-.9-.7a2.2 2.2 0 0 0-1.8-1.3 5.1 5.1 0 0 0-2.3-1.2l.2.2.5.4 1.3.7a8.5 8.5 0 0 1 2.1 1.6 6.8 6.8 0 0 0 1.5 1.1l.6.5c.1.1.2.2.1.3H81l-.9-.3a5.6 5.6 0 0 1-2-.8l-1.2-.6-1.3-.7h-.2c-.3-.1-.4-.4-.8-.5l-.8-.2-2.5-.5a2.6 2.6 0 0 1-.9-.7 1.7 1.7 0 0 1-.9-.3l-1-.4a18.1 18.1 0 0 1-2.8-.8l-.6-.2-1-.3h-.5l-.2-.3v-.1h-1.6l-.6-.5-.4.2-.4.2h-.2l-.9-.5c-.6.6-1.1-.2-1.6-.1l-1-.3a1.2 1.2 0 0 1-1.2 0h-1.2a.6.6 0 0 1-.5-.6l.3-.2h.6a.7.7 0 0 1 .1.3c0 .2.2.2.5.2h.2l-.4-.6a1.1 1.1 0 0 0-1-.2l-1 .3H53c.3.2.2.3.2.5h-1.6l-.4-.2-.8-.4h-.1l-.7-.2h-2.3l.4-.2.8-.2h.3l1.7-.3 1.1-.2.6-.2h-1.1a8.4 8.4 0 0 0-3.4 0h-1.3L43 3.6c-1.4.1-2.8 0-3.9 1.2-2.5-.4-4.7.7-6.9 1.8l-2.2.9a6.7 6.7 0 0 0-3.7 1.8h.3l.5-.3.8-.5 1.3-.6 1-.2a6 6 0 0 1 2-.9l.9-.3h.2c.1.2.5 0 .7 0h.2c.1 0 .1.1 0 .1l-.6.4 1-.3.8-.2-1.3.7-1.3.4a1 1 0 0 0-.6.5l-.3.5h.3l.4-.2a1.4 1.4 0 0 1 .9-.6l1.5-.5h.5a.1.1 0 0 1 .1.2c-.2.2-.6.3-.8.5h.2l-3.2.9-3.8 1.6a5.2 5.2 0 0 1-2.3 1.2 6.6 6.6 0 0 1-1.7 1.1l-.8.2a1.5 1.5 0 0 1-1.3.9l-.3.5a3.7 3.7 0 0 1-1.2 1.1h-.1v-.1l-.2.2-.2.2-1 .2h-.5l-.4.5c-.1.1-.1.2 0 .2h.1c-.6.6-1 1.4-1.8 1.7L15 19.9c-.6 1.2-1.8 1.6-2.6 2.6s-1.4 3.9-3.9 4.3l-.2-.3-.2.5a2.7 2.7 0 0 1-.4.8 16.9 16.9 0 0 0-1.2 2.1.8.8 0 0 0-.1.5 1.4 1.4 0 0 1-.2.8l-.5 1.1h.2c.3 0 .3.3.4.6l.8-1.1a2.2 2.2 0 0 1 .6-.7 2 2 0 0 0 .9-.9l.3-.3.4-.4.6-1.1h.2c.1.1.1.1.2 0l.2-.4h.5v.8l.5-.5a.5.5 0 0 0 0-.5.4.4 0 0 1 .1-.3 1.5 1.5 0 0 0 .3-.5 1.3 1.3 0 0 1 .8-.9l.3-.2.3-.3a2.4 2.4 0 0 0 .8-1l-.2-.3c0-.1.1-.3.2-.4h.5l.6-.8.6-.3h.2a48.8 48.8 0 0 0-5.5 7.2h-.1.1a48.4 48.4 0 0 0-5.3 11.2h-.5l-.5-.4c-.2-.2-.1-.7-.4-.9h.1c.3-.5-.1-1.2.3-1.7s.1-1.4-.9-1.2-1.5.5-1.3 1.5-1 1.8-1.1 2.9-.5.5-.3.9v3.9c.1.8-.5 1.8.8 2.1l1.3.9c.1.5-.5 1.6.9 1.3a49.2 49.2 0 0 0-.3 5c0 1.1.1 2.2.1 3.3v-.4c-.1-.4-.1-.8-.2-1.3l-.3.3v-.2h-.5c0 .5-.1.8-.4.9a.9.9 0 0 0-.1.5c0 .1.1.3.2.2s.4.2.7.4-.2.3-.4.2-.2.1-.2.3v.3l.5 1.5c0 .3-.1.6-.1.9a1.7 1.7 0 0 0 .2.8h-.3v-.3l-.7-.2v-.6a1.5 1.5 0 0 0 0-.5 14.6 14.6 0 0 1-.3-1.8 16.6 16.6 0 0 1-.2-3.5.9.9 0 0 1 .1-.5v.2a2.9 2.9 0 0 1 .1.5.8.8 0 0 0 .1.4c.1.2.2.4.4.4s.1-.1.1-.2a2.1 2.1 0 0 0-.1-.5 4.2 4.2 0 0 1-.3-1.3 1.5 1.5 0 0 0-.3-.7 1.6 1.6 0 0 1-.2-.9v-.8c0-.3.1-.6.1-.9a.5.5 0 0 0-.1-.4h-.1c-.8.4-.7.2-1 1.6V55c0 .7-.1 1.4 0 2.1a10.8 10.8 0 0 0 .2 2.3 1.8 1.8 0 0 1 0 .5 3.1 3.1 0 0 0 .1.9 5.9 5.9 0 0 1 .1 1.3 3.9 3.9 0 0 0 .2 1.7 1.2 1.2 0 0 1 0 .4 2.1 2.1 0 0 0 .1.8 4.9 4.9 0 0 1 .2.9 14 14 0 0 0 .5 2.2 5 5 0 0 1 .2 1 1.7 1.7 0 0 0 .3.7 2.9 2.9 0 0 1 .5 1.2 8.5 8.5 0 0 0 .3 1l.4 1.4a5.4 5.4 0 0 0 .6 1.5 8.5 8.5 0 0 1 .8 2.1l.2.5a2.1 2.1 0 0 1 .5 1 2.1 2.1 0 0 0 .4.8 1 1 0 0 1 .2.5c.1.3.2.4.4.3h.1v.9l.5 1 .5 1 1.1 1.2.4.4c.3.3.7.5.9 1l.4.3a.7.7 0 0 1 .3.5l.2.7a3.3 3.3 0 0 0 .6.9l.4.2h.3a.2.2 0 0 1 .1.3 2.5 2.5 0 0 0 0 .5.9.9 0 0 0 .4.5h.2c.4-.1.8.2 1.2.7h.1c0-.1.1-.1 0-.2v-.2c0-.1.1-.2.2-.1a.7.7 0 0 1 .3.6v.2a4.3 4.3 0 0 0 .4 1.2c.5.3.5.3.5.1s0-.2.2-.2h.4l.2.3.8.5c.7.8 1.8.7 2.6 1.2l1.7 1.7h.2a2.9 2.9 0 0 0 1.6 1.6 1.3 1.3 0 0 0 1 .6c0 .5.6.6 1.1.7a1.2 1.2 0 0 0 .8.4h.2a1.7 1.7 0 0 0 1.5.5l.9.8 2.4.9v.2c.5 1.1 1.7.7 2.5 1l1.1.4h.4c1.2.3 2.4.9 3.7.5a.7.7 0 0 0 0 .4c1.1.7 2.4 0 3.6.4a2.9 2.9 0 0 0 1.7.1h.1l.8.2h.3l.9.2h.3a.5.5 0 0 1 .5 0 7.9 7.9 0 0 0 1.5.4h.6a.7.7 0 0 1 .7 0h3.9a5 5 0 0 0 1.6-.1h1l.5-.2H60l.6-.2.5-.3h2.2v.6H62l-1.2.2c-.4.1-.7 0-1 .1a2.4 2.4 0 0 1-1 .2l-1.3.3h-.4a3.1 3.1 0 0 0-1.5.1h-1.8a1.1 1.1 0 0 1-.9 0h-4.5a1.3 1.3 0 0 0-1.1.3H47l-.3-.2v-.3h-1.2a4.1 4.1 0 0 0-1.3-.3h-2.5l-.7-.2-.5-.2-2.1-.4h-.5l-.5-.2-2.1-.7-1.4-.4h-2.2c-.1 0-.1.1-.1.2h.2c1.3.5 2.6.9 3.9 1.5h.3l.9.2 1.4.4h1.3l.6.2.7.3 1.7.3 1.1.2 1.1.2h.8l.8.2h3.1l1 .2h2.3l1-.2H56c.4 0 .6-.1.7-.3h1a1 1 0 0 0 .8-.3c-.1.1 0 .1.1.2h.4v-.2c0-.1 0-.1.2-.2s.6-.1.7.1h.4l.3-.2c.2 0 .2 0 .2.1h.7l.5-.2.8-.4c.1.3.4.4 1.3.2l1.3-.4h1.2c.9-.1 2 0 2.7-.7h.2l.4-.3 1.1-.3a6.1 6.1 0 0 0 2-.8l.4-.2h.1l.9-.6.4-.2.5-.2h.4c.4-.1.4-.1.5-.4s0-.1-.2-.1h-.1l.4-.5h.2c.3-.1.5-.2.7-.1h.2a1.3 1.3 0 0 0 .9-.9c.3-.4 1.1-.2 1.3-.8l4.3-3.1c1.1-.1 1.4-1.1 2.2-1.7s2.3-1.1 3-2.2l.9-.4h.1a1 1 0 0 0 1.2-.7v.4c.8-.4 1.8.3 2.6-.5s0-2.7 1-3.8l.7-.5a12.1 12.1 0 0 0 1.5-4.2l.2-.2c0-.3 0-.7.4-.9a.9.9 0 0 0 .2-1.2h-.2a.3.3 0 0 0 0-.3c.7 0 .8-.7 1.2-1V77a.5.5 0 0 1 0-.2 3.8 3.8 0 0 0 .1-.7zM5.9 32.2z"/>
      <path d="M26.4 9.3l-.3.2-.4.3.5-.2zm6.1-2h.1l.3-.2h-.4zm-2.6 1l-.1.1h.1v-.1zm-1.5 1.4zm1.3-.2zm-6.3 3.1zM9.2 26.2l-.4.4H9a.4.4 0 0 0 .2-.4zm3-3.5a2.1 2.1 0 0 0 .3-.6 1.5 1.5 0 0 0-.5.5c-.1.1-.1.2 0 .2zM11 24.2V24c-.2 0-.5.3-.8.3v.2c.3.3.4.2.8-.3zm3 66.2zM73.9 9.2h.1l-.5-.3zm-2.5-1.4c.5-.1.8.4 1.2.5h.1l-.3-.2-1-.5-1.1-.5.3.2zM52.8 3.1zm11.7 2h-.1l-1.2-.2h.5zm2 .7l1.3.4a3.3 3.3 0 0 0-1.3-.4zm-9 0a1 1 0 0 0 .2-.5h-.5l-.3.3.4.3zm9 1.6zM49.9 4.2zm2.9.7zM48.5 4zm13.8 2.1a.5.5 0 0 0 0 .1zm44.8 52.3h-.3V58h.3c.1 0 .2-.3.1-.4s-.1-.7-.3-.8a.3.3 0 0 1-.2-.3l.2-.4a.4.4 0 0 0 0-.2h-.2l-.2-.3c-.1.3-.2.6-.4.7a.5.5 0 0 0 0 .2c0 .1 0 .2-.1.2h-.1a1.1 1.1 0 0 1-.1.3 2.3 2.3 0 0 0-.4.9.4.4 0 0 0 .1.4h.1a1.7 1.7 0 0 0-.1.8v.4a1.8 1.8 0 0 1-.1.5h-.1l-.4.7v.6a1.5 1.5 0 0 1-.3 1.1h-.2l-.2-.2a.9.9 0 0 1-.1-.8 6.5 6.5 0 0 0 .1-1.7c0-.1-.1-.2-.1-.2a.5.5 0 0 0-.1.3v.6c0 .2-.1.6-.3.7s-.1.2-.1.3l-.2.6.3.5c-.2.2-.4.1-.5-.1v1h.3v.4a4.2 4.2 0 0 0-.3 1.4 3.3 3.3 0 0 0 0 .4 4 4 0 0 1-.2 1.3 2 2 0 0 0 0 .6l-.3.7a3.2 3.2 0 0 1-.3.7l-.3.6-.9 2.7c.3.9-.4 1.5-.8 2.1a2.7 2.7 0 0 1-.8 2.3v.4c0 .1.1.2.3.1l.4-.3.2-.4h.2c.1.1.2.1.4-.1h.2a.5.5 0 0 1 .1.6 2.9 2.9 0 0 0-.1.8c0 .1 0 .2.1.2h.2c.1.1.2 0 .3-.3l.2-.5h.3c.4-.1.4-.1.6-.6l.5-.9.3-.6.4-1a1.6 1.6 0 0 1 .3-1 .6.6 0 0 0 .1-.6c0-.2 0-.3.2-.6l.3-.4.5-1a4.7 4.7 0 0 1 .2-.9 3 3 0 0 0 .3-1.3 3.8 3.8 0 0 1 .3-.9v-.5c-.1-.2-.1-.2 0-.6s.1-.2.2-.2a.4.4 0 0 1 .1.3l.2-.5a2.3 2.3 0 0 0 .2-.9v-.3c0-.1 0-.3-.1-.3v.4c-.2 0-.3.2-.5.3a6.4 6.4 0 0 0 .1-.8l.4-.2a.7.7 0 0 0 .2-.6 1.4 1.4 0 0 1 0-.3 4.8 4.8 0 0 0 .2-1.4v-.2l.3-1h.1a.3.3 0 0 0 .1-.3h-.1a.9.9 0 0 1 .2-.8 1.5 1.5 0 0 0-.9-1zm-1.2 7.8zm-.2-9.9zm0 0zM9.1 30.8a.3.3 0 0 0 0-.2l-.2-.2-.2.2-.3.6c0 .3-.3.6-.3.9v.2h.1zm96.3 24.8h.1a1.7 1.7 0 0 0 .2-1.2.5.5 0 0 1 .2-.5h.1v-.2l-.2-.2h-.1c-.1.1-.2.3-.3.3s-.1.1-.1.3v.3a2.2 2.2 0 0 0 .1 1.2zM13.2 90.1c-.1 0 0 .2 0 .3l.8.8h.1c-.2-.3-.3-.6-.2-.7a.9.9 0 0 1-.5-.2zm.8.3zm92.3-35.7h.1a2 2 0 0 0 0-.6c-.3.1-.3.1-.3.6s.1.1.2 0z"/>
      <path d="M106.7 62a.6.6 0 0 0 .1-.5c0-.1-.1-.2-.1-.1h-.2v.2c0 .4.1.5.2.4zm.1-8.2h-.1v.6a1 1 0 0 0 .1-.6zM17.1 92.6h-.2v.2l.2.2h.2v-.2zm86.6-33.3c0-.1 0-.1-.1-.1zM9.9 86.5l.5.5-.4-.6z"/>
      <circle cx="10.5" cy="87.1" transform="rotate(-24.8 10.4 87.159)"/>
      <path d="M9.7 30.1h-.1v.2-.2h.1zm83.2-6.6l-.2-.3h-.1zm-14.7 77.1zM5.9 32.2zm-.1.2a.3.3 0 0 0 .1-.2v.2zm1.9-4.9zM61.5 2.4zm42.8 58.2v.1-.1zM16.4 92.5h-.1c.1.1.2 0 .1-.1zm.2.7h.1l-.1-.1v.1zm73.9-71.3zm15.2 34.4zM14.6 91.7zm92.1-37zm-.8 11.4zM34.6 0z"/>
    </g>
  </g>
  <g id="SvgjsG10086" featurekey="symbolFeature-0" transform="matrix(0.6247143849929431,0,0,0.6247143849929431,14.296205331608945,14.324547791668206)" fill="#f6f6f6">
    <path xmlns="http://www.w3.org/2000/svg" fill="#f6f6f6" d="M91.6,52.244c-0.26-3.377-0.854-6.562-2.31-9.623c-1.003-2.109-2.285-3.911-3.739-5.73  c-0.575-0.719-1.352-1.497-2.077-2.059c-0.496-0.385-0.992-0.769-1.489-1.154c-0.489-0.379-0.624-0.678-0.908-1.248  c-1.582-3.166-4.419-5.931-7.731-7.261c-4.666-1.873-9.807-1.703-14.176,0.927c-2.496-6.541-9.473-11.284-16.249-12.063  c-3.487-0.401-6.999,0.017-10.269,1.346c-3.873,1.574-6.924,4.271-9.347,7.615c-0.602,0.83-1.113,1.804-1.545,2.731  c-0.12,0.258-0.223,0.526-0.333,0.788c-0.147,0.348-1.093,0.403-1.452,0.504c-1.491,0.422-2.941,0.969-4.316,1.687  c-5.193,2.713-9.317,7.198-11.401,12.696c-3.002,7.922-1.498,16.83,3.719,23.417c4.608,6.069,11.65,10.217,19.297,10.734  c7.688,0.52,15.371-2.884,19.671-9.367c4.765,8.776,16.279,12.803,25.754,10.394c8.348-2.123,15.316-8.322,17.833-16.655  C91.28,57.441,91.644,54.838,91.6,52.244z M88.398,52.456c-0.272,3.543-0.973,7.148-2.901,10.205  c-2.27,3.597-5.29,6.619-9.171,8.444c-3.623,1.703-7.774,2.438-11.762,1.899c-5.376-0.726-10.254-3.562-13.894-7.547  c-0.624-0.683-1.234-1.373-1.811-2.097c-0.37-0.463,0.288-1.398,0.49-1.945c0.295-0.798,0.545-1.611,0.747-2.438  c0.738-3.021,0.803-6.195,0.146-9.237c-1.223-5.663-5.141-10.458-10.534-12.633c-5.342-2.154-11.631-1.544-15.988,2.388  c-4.309,3.89-6.008,10.373-3.177,15.643c1.981,3.795,6.319,6.195,10.597,5.5c-5.802-0.022-10.139-5.27-9.428-10.937  c0.718-5.723,5.186-10.366,11.102-10.342c5.614,0.022,10.651,3.689,12.668,8.874c1.86,4.779,1.179,10.578-1.674,14.804  c-2.142,3.172-5.897,5.848-9.444,7.114c-2.825,1.009-5.709,1.638-8.714,1.254c-2.637-0.337-5.203-1.22-7.526-2.506  c-4.86-2.69-8.661-7.205-10.571-12.413c-1.102-3.003-1.592-5.957-1.07-9.129c0.479-2.906,1.511-5.791,3.073-8.292  c2.682-4.295,5.877-8.258,10.935-9.762c2.331-0.693,4.62-0.646,6.977-0.215c-1.454-0.526-2.964-0.986-4.523-1.036  c0.818-1.927,1.74-3.77,3.102-5.38c3.215-3.799,7.562-6.14,12.508-6.707c3.997-0.458,8.197,0.805,11.434,3.155  c2.221,1.612,4.062,3.607,5.409,6.007c0.658,1.172,1.051,2.443,1.763,3.587c0.606,0.974,1.19,1.982,1.885,2.897  c0.007,0.009,0.014,0.018,0.021,0.026c0.381-1.121,0.499-2.253,0.468-3.429c0.135-0.223,0.72-0.431,0.946-0.566  c0.571-0.342,1.166-0.574,1.777-0.833c1.474-0.624,3.392-1.07,4.993-0.942c4.324,0.345,8.397,1.961,10.944,5.673  c-3.369-1.819-7.854-3.064-11.61-1.863c1.612,0.69,3.409,0.944,5.088,1.432c2.271,0.661,4.349,1.503,6.396,2.701  c2.936,1.718,5.73,4.178,7.395,7.186C87.417,44.533,88.492,48.38,88.398,52.456z"/>
  </g>
</svg>